<svg xmlns="http://www.w3.org/2000/svg" viewBox="0 0 536 721" width="536" height="721">
	<defs>
		<linearGradient id="grd1" gradientUnits="userSpaceOnUse"  x1="341.565" y1="936.973" x2="489.048" y2="479.718">
			<stop offset="0" stop-color="#168ca8"  />
			<stop offset="0.06" stop-color="#2495af"  />
			<stop offset="0.23" stop-color="#44abbf"  />
			<stop offset="0.41" stop-color="#5dbccb"  />
			<stop offset="0.59" stop-color="#6fc8d4"  />
			<stop offset="0.78" stop-color="#7ad0d9"  />
			<stop offset="1" stop-color="#7dd2db"  />
		</linearGradient>
		<linearGradient id="grd2" gradientUnits="userSpaceOnUse"  x1="55.64" y1="663.211" x2="226.057" y2="663.211">
			<stop offset="0" stop-color="#168ca8"  />
			<stop offset="0.16" stop-color="#329fb6"  />
			<stop offset="0.39" stop-color="#52b5c6"  />
			<stop offset="0.62" stop-color="#6ac5d2"  />
			<stop offset="0.82" stop-color="#78cfd9"  />
			<stop offset="1" stop-color="#7dd2db"  />
		</linearGradient>
	</defs>
	<style>
		tspan { white-space:pre }
		.shp0 { opacity: 0.612;fill: #e1feff }
		.shp1 { opacity: 0.29;fill: #e1feff }
		.shp2 { opacity: 0.58;fill: #e1feff }
		.shp3 { opacity: 0.588;fill: #ffffff }
		.shp4 { opacity: 0.588;fill: #c0f6fb }
		.shp5 { fill: #c0f6fb }
		.shp6 { opacity: 0.388;fill: #e1feff }
		.shp7 { fill: url(#grd1) }
		.shp8 { fill: #168ca8 }
		.shp9 { fill: #33b3c4 }
		.shp10 { fill: #7dd2db }
		.shp11 { fill: #2094af }
		.shp12 { fill: #3dbcc9 }
		.shp13 { fill: #0d809b }
		.shp14 { fill: #2fa6ba }
		.shp15 { fill: #eefffd }
		.shp16 { fill: #f89c69 }
		.shp17 { fill: #002b6a }
		.shp18 { fill: #bff7f3 }
		.shp19 { fill: #2ca4b7 }
		.shp20 { fill: #d7fffb }
		.shp21 { fill: #ffffff }
		.shp22 { fill: #1d3867 }
		.shp23 { fill: #6abfce }
		.shp24 { fill: #f9a873 }
		.shp25 { fill: #073a77 }
		.shp26 { fill: #124e89 }
		.shp27 { fill: #1d99b3 }
		.shp28 { opacity: 0.259;fill: #ffffff }
		.shp29 { fill: url(#grd2) }
		.shp30 { fill: #003d75 }
		.shp31 { fill: #11487f }
		.shp32 { fill: #e0554b }
		.shp33 { fill: #53cad3 }
	</style>
	<g id="Group_1087">
		<g id="Group_1086">
			<g id="Calque_2">
				<g id="_ÎÓÈ_1">
          <rect id="Rectangle_1166" data-name="Rectangle 1166" width="1440" height="810" transform="translate(-0.395 -0.222)" fill="#7dd2db"/>
          <path id="Path_932" fill-rule="evenodd" class="shp0" d="M535.28 182.72C535.28 194.75 526.72 200.08 515.23 196.21L515.23 221.21C515.23 245.53 495.72 255.27 471.68 243.25C447.64 231.22 427.88 201.85 427.88 177.53L427.88 148.95C418.53 142.94 409.71 133.17 401.7 119.82C400.36 117.83 399.83 115.68 400.36 114.35C389.4 94.98 383 72.55 383 57.85C383 35.16 393.15 38.08 409.7 42.36C411.05 40.9 413.18 40.62 415.6 41.83C419.06 43.56 422 47.7 422 51.44C422 54.91 419.06 56.38 415.6 54.65C415.22 54.44 414.87 54.2 414.52 53.94C414.18 53.69 413.84 53.41 413.53 53.12C413.21 52.83 412.92 52.52 412.64 52.19C412.35 51.87 412.09 51.53 411.85 51.17C395.28 46.63 391.02 45.56 391.02 61.85C391.02 74.68 397.16 95.11 406.26 112.21C406.72 112.44 407.16 112.71 407.59 113C408.01 113.29 408.42 113.62 408.8 113.96C409.18 114.31 409.53 114.69 409.86 115.09C410.19 115.49 410.49 115.91 410.76 116.35C415.58 124.38 423.05 134.83 432.12 139.33C440.94 143.74 448.44 140.81 453.24 137.6C453.57 137.44 453.93 137.32 454.29 137.25C454.66 137.18 455.03 137.15 455.4 137.17C455.78 137.2 456.14 137.27 456.5 137.38C456.85 137.5 457.19 137.66 457.51 137.86C466.86 129.98 473 115.7 473 102.86C473 86.61 468.45 83.52 452.17 71.38C451.86 71.47 451.55 71.54 451.23 71.57C450.91 71.61 450.59 71.61 450.27 71.59C449.95 71.57 449.64 71.52 449.33 71.44C449.02 71.36 448.71 71.25 448.42 71.12C444.95 69.37 442 64.96 442 61.49C442 57.74 444.95 56.55 448.42 58.29C449.05 58.63 449.65 59.02 450.21 59.46C450.77 59.91 451.3 60.4 451.77 60.93C452.25 61.47 452.68 62.04 453.05 62.65C453.43 63.26 453.75 63.9 454.02 64.56C470.86 76.99 481 84.46 481 106.91C481 121.6 474.31 137.23 463.64 146.04C464.17 147.91 463.64 149.24 462.3 149.92C454.28 155.52 445.19 156.33 435.87 152.98L436.12 181.7C436.12 201.47 451.88 225.38 471.64 235.27C491.16 245.06 507.19 237.04 507.19 217.28L507.19 192.18C495.96 184.68 487.15 170.64 487.15 158.65C487.15 145.31 497.84 139.97 511.19 146.65C524.57 153.33 535.27 169.37 535.28 182.72ZM511.19 182.72C517.93 186.08 523.23 183.08 523.18 176.72C523.18 170.04 517.87 162.03 511.19 158.69C504.81 155.48 499.19 158 499.19 164.69C499.19 171.09 504.78 179.52 511.19 182.72L511.19 182.72Z" />
					<path id="Path_933" class="shp1" d="M281.77 279.47L278.29 24.61L459.34 110.94L462.9 371.68L281.77 279.47Z" />
					<path id="Path_934" class="shp1" d="M290.66 100.28L289.46 44.25L450.4 121.87L451.6 177.9L290.66 100.28Z" />
					<path id="Path_935" class="shp1" d="M290.66 165.03L289.46 109L450.4 186.62L451.6 242.65L290.66 165.03Z" />
					<g id="Group_1082" style="opacity: 0.89">
						<path id="Path_936" class="shp2" d="M208.79 400.03L208.45 167.51L532.3 333.52L532.3 563.04L208.79 400.03Z" />
						<path id="Path_937" class="shp3" d="M231.26 278.22L231.71 248.54L315.35 290.86L314.89 320.53L231.26 278.22Z" />
						<path id="Path_938" class="shp3" d="M231.26 315.1L231.71 285.43L315.35 327.75L314.89 357.41L231.26 315.1Z" />
						<path id="Path_939" class="shp3" d="M231.26 352.68L231.71 323.01L315.35 365.32L314.89 394.99L231.26 352.68Z" />
						<path id="Path_940" class="shp3" d="M416.3 366.43L415.41 301.2L510.64 349.37L511.53 414.61L416.3 366.43Z" />
						<path id="Path_941" class="shp3" d="M334.59 429.38L334.49 260.81L396.27 293.68L396.27 462.26L334.59 429.38Z" />
						<path id="Path_942" class="shp3" d="M485.72 507.75L485.68 432.54L511.09 445.1L511.09 520.88L485.72 507.75Z" />
						<path id="Path_943" class="shp3" d="M450.81 491.08L450.77 415.86L476.17 428.42L476.17 504.21L450.81 491.08Z" />
						<path id="Path_944" class="shp3" d="M415.46 473.12L415.41 397.9L440.81 410.46L440.81 486.25L415.46 473.12Z" />
						<path id="Path_945" class="shp3" d="M415.85 391.39L415.41 376.65L510.64 424.83L511.09 439.57L415.85 391.39Z" />
						<path id="Path_946" class="shp3" d="M231.26 240.94L231.71 211.27L315.35 253.58L314.89 283.25L231.26 240.94Z" />
						<path id="Path_947" class="shp3" d="M231.48 379.72L231.71 360.86L315.35 403.17L315.12 422.03L231.48 379.72Z" />
						<path id="Path_948" class="shp4" d="M485.28 363.7L485.61 342.03L505.06 351.67L504.73 373.35L485.28 363.7Z" />
						<g id="Group_1081" style="opacity: 0.588">
							<path id="Path_949" class="shp5" d="M234.43 226.6L234.59 216.13L288.15 243.88L287.99 254.35L234.43 226.6Z" />
							<path id="Path_950" class="shp5" d="M233.1 264.34L233.27 253.87L286.82 281.62L286.65 292.09L233.1 264.34Z" />
							<path id="Path_951" class="shp5" d="M232.9 337.79L233.06 327.32L286.62 355.07L286.45 365.55L232.9 337.79Z" />
							<path id="Path_952" class="shp5" d="M290.72 266.83L291.05 245.15L310.51 254.8L310.18 276.47L290.72 266.83Z" />
							<path id="Path_953" class="shp5" d="M372.13 361.66L372.23 308.53L383.28 314.01L383.18 367.14L372.13 361.66Z" />
							<path id="Path_954" class="shp5" d="M340.06 421.59L340.14 395.95L385.43 419.3L385.34 444.94L340.06 421.59Z" />
							<path id="Path_955" class="shp5" d="M357.48 354.64L357.58 301.51L368.63 306.99L368.53 360.12L357.48 354.64Z" />
							<path id="Path_956" class="shp5" d="M340.26 285.88L340.35 274.09L385.67 295.75L385.58 307.54L340.26 285.88Z" />
							<path id="Path_957" class="shp5" d="M423.33 325.08L423.41 313.29L476.16 338L476.08 349.78L423.33 325.08Z" />
							<path id="Path_958" class="shp5" d="M290.72 305.17L291.05 283.49L310.51 293.14L310.18 314.82L290.72 305.17Z" />
							<path id="Path_959" class="shp5" d="M290.72 341.3L291.05 319.63L310.51 329.27L310.18 350.95L290.72 341.3Z" />
							<path id="Path_960" class="shp5" d="M290.72 379.81L291.05 358.13L310.51 367.78L310.18 389.45L290.72 379.81Z" />
						</g>
					</g>
					<path id="Path_961" fill-rule="evenodd" class="shp6" d="M221.63 55.69L221.63 133.29C221.63 136.79 218.79 138.21 215.29 136.47L151.42 104.53C147.92 102.77 145.07 98.5 145.07 95L145.07 4.11C145.07 0.61 147.92 -0.82 151.42 0.93L203.56 27L221.63 55.69ZM216.3 56.87L202.39 49.91C202.02 49.72 201.67 49.48 201.36 49.2C201.05 48.92 200.77 48.6 200.54 48.25C200.31 47.91 200.12 47.53 199.98 47.14C199.84 46.74 199.76 46.33 199.72 45.91L199.72 30.43L151.42 6.27C150.86 5.99 150.4 6.22 150.4 6.78L150.4 97.69C150.42 97.85 150.45 98 150.51 98.15C150.56 98.3 150.63 98.44 150.72 98.57C150.81 98.7 150.91 98.82 151.03 98.92C151.15 99.03 151.28 99.12 151.42 99.19L215.28 131.13C215.84 131.41 216.3 131.17 216.3 130.62L216.3 56.87ZM159.81 33.5L205.12 56.16C205.4 56.3 205.66 56.48 205.89 56.69C206.12 56.9 206.33 57.14 206.5 57.4C206.67 57.66 206.81 57.94 206.92 58.24C207.02 58.54 207.09 58.84 207.11 59.16C207.11 60.26 206.22 60.71 205.12 60.16L159.81 37.5C159.54 37.35 159.28 37.17 159.04 36.96C158.81 36.75 158.6 36.51 158.43 36.25C158.26 35.99 158.12 35.71 158.01 35.41C157.91 35.12 157.84 34.81 157.81 34.5C157.81 33.4 158.71 32.94 159.81 33.5L159.81 33.5ZM207.11 72.59C207.11 73.69 206.22 74.14 205.12 73.59L159.82 50.93C159.54 50.78 159.28 50.6 159.05 50.39C158.81 50.18 158.61 49.94 158.43 49.68C158.26 49.42 158.12 49.14 158.01 48.84C157.91 48.55 157.84 48.24 157.82 47.93C157.82 46.83 158.72 46.37 159.82 46.93L205.12 69.58C205.4 69.73 205.66 69.91 205.89 70.12C206.12 70.33 206.33 70.57 206.5 70.83C206.68 71.09 206.82 71.37 206.92 71.67C207.02 71.96 207.09 72.27 207.11 72.58L207.11 72.59ZM207.11 85.58C207.11 86.69 206.22 87.13 205.12 86.58L159.82 63.89C159.54 63.75 159.28 63.57 159.05 63.36C158.81 63.15 158.61 62.91 158.43 62.65C158.26 62.39 158.12 62.11 158.01 61.81C157.91 61.51 157.84 61.21 157.82 60.89C157.82 59.79 158.72 59.34 159.82 59.89L205.12 82.55C205.4 82.69 205.66 82.87 205.89 83.09C206.13 83.3 206.33 83.54 206.51 83.8C206.68 84.06 206.82 84.35 206.92 84.65C207.03 84.94 207.09 85.25 207.11 85.57L207.11 85.58ZM205.12 99.79L159.82 77.14C159.54 76.99 159.28 76.81 159.05 76.6C158.81 76.39 158.61 76.16 158.43 75.9C158.26 75.63 158.12 75.35 158.01 75.06C157.91 74.76 157.84 74.45 157.82 74.14C157.82 73.03 158.72 72.59 159.82 73.14L205.12 95.8C205.4 95.94 205.66 96.12 205.89 96.33C206.12 96.54 206.33 96.78 206.5 97.04C206.67 97.3 206.81 97.58 206.92 97.88C207.02 98.17 207.09 98.48 207.12 98.79C207.12 99.89 206.22 100.34 205.12 99.79Z" />
					<path id="Path_962" class="shp7" d="M349.64 526.21C351.39 524.99 342.65 524.38 342.65 524.38L364.6 522.13C366.27 521.97 367.95 521.86 369.64 521.8C371.32 521.74 373 521.73 374.69 521.77C376.37 521.81 378.05 521.9 379.73 522.04C381.41 522.18 383.08 522.36 384.75 522.6C386.42 522.84 528.67 578.4 523.01 582.4L377.13 654.57C374.29 656.57 368.88 657.99 362.55 658.65L349.64 526.21Z" />
					<path id="Path_963" class="shp8" d="M358.71 647.22L208.79 572.22C192.3 563.98 178.85 543.78 178.85 527.31L178.85 104.29C178.85 99.25 169.26 96.79 169.26 96.79L188 87.42C193.4 84.88 200.75 85.31 208.83 89.35L358.75 164.31C375.24 172.56 388.69 192.76 388.69 209.22L388.69 632.25C388.69 640.5 385.31 646.28 379.89 649L361.17 658.32C361.17 658.32 364.18 649.95 358.71 647.22Z" />
					<path id="Path_964" class="shp9" d="M340.65 656.27L190.74 581.31C174.25 573.06 160.8 552.87 160.8 536.4L160.8 113.37C160.8 96.88 174.29 90.17 190.74 98.38L340.66 173.38C357.15 181.63 370.6 201.82 370.6 218.29L370.6 641.31C370.59 657.77 357.12 664.51 340.65 656.27Z" />
					<path id="Path_965" class="shp10" d="M339 619.76L192.36 546.42C180.74 540.61 171.23 530.08 171.23 518.46L171.23 131.16C171.23 119.54 180.74 114.78 192.36 120.59L339 193.93C350.62 199.74 360.14 214.01 360.14 225.63L360.14 609.19C360.14 620.84 350.62 625.57 339 619.76Z" />
					<path id="Path_966" class="shp8" d="M295.3 159.72L236.01 130.07C234.74 129.43 233.69 129.95 233.69 131.23L233.69 131.23C233.72 131.6 233.8 131.96 233.92 132.3C234.04 132.64 234.21 132.97 234.41 133.28C234.61 133.58 234.85 133.86 235.12 134.1C235.39 134.35 235.69 134.56 236.01 134.73L295.3 164.34C296.58 164.98 297.63 164.46 297.63 163.18L297.63 163.18C297.59 162.82 297.51 162.47 297.39 162.13C297.27 161.78 297.1 161.46 296.9 161.16C296.7 160.86 296.46 160.58 296.19 160.34C295.92 160.1 295.62 159.89 295.3 159.72L295.3 159.72Z" />
					<path id="Path_967" class="shp11" d="M275.63 593.86L240.26 576.17C236.57 574.32 233.56 576.63 233.56 580.31L233.56 589.36C233.56 593.05 236.56 599.01 240.26 600.85L275.63 618.54C279.32 620.39 282.38 617.44 282.38 613.76L282.38 604.73C282.34 601.04 279.32 595.73 275.63 593.86Z" />
					<path id="Path_968" class="shp12" d="M273.83 595.2L242.09 579.32C238.77 577.66 236.09 579.02 236.09 582.32L236.09 590.44C236.09 593.75 238.79 597.81 242.09 599.44L273.84 615.32C277.14 616.98 279.84 615.63 279.84 612.32L279.84 604.23C279.85 600.91 277.13 596.85 273.83 595.2Z" />
					<path id="Path_969" class="shp13" d="M310.62 169.19C310.56 168.49 310.41 167.8 310.18 167.15C309.95 166.49 309.63 165.86 309.24 165.28C308.86 164.69 308.4 164.16 307.88 163.69C307.36 163.23 306.78 162.83 306.16 162.5C303.71 161.27 301.71 162.27 301.71 164.75C301.77 165.45 301.92 166.13 302.15 166.79C302.38 167.45 302.7 168.08 303.08 168.66C303.47 169.24 303.93 169.77 304.45 170.24C304.97 170.71 305.55 171.11 306.16 171.43C308.62 172.66 310.62 171.64 310.62 169.19Z" />
					<path id="Path_970" class="shp8" d="M319.82 174.7C319.78 174.22 319.68 173.76 319.53 173.31C319.37 172.86 319.16 172.44 318.9 172.04C318.64 171.64 318.33 171.28 317.98 170.96C317.63 170.64 317.24 170.37 316.82 170.15C315.15 169.31 313.79 169.99 313.79 171.65C313.83 172.12 313.93 172.59 314.09 173.04C314.25 173.48 314.46 173.91 314.72 174.31C314.99 174.7 315.3 175.07 315.66 175.38C316.01 175.7 316.4 175.97 316.82 176.2C318.47 177.09 319.82 176.34 319.82 174.7Z" />
					<path id="Path_971" class="shp8" d="M229.64 127.42C228.65 125.92 227.06 125.17 226.08 125.64C225.1 126.1 225.1 127.72 226.08 129.2C227.06 130.67 228.65 131.45 229.64 130.98C230.63 130.52 230.62 128.89 229.64 127.42Z" />
					<path id="Path_972" class="shp14" d="M382.77 351.29L381.22 352.19C380.62 352.24 377.51 350.26 376.82 349.94C376.64 349.84 376.47 349.71 376.32 349.55C376.17 349.4 376.05 349.22 375.95 349.04C375.85 348.85 375.78 348.64 375.73 348.43C375.69 348.23 375.68 348.01 375.7 347.8L375.7 295.6C375.75 295 375.88 294.41 376.08 293.85C376.28 293.28 376.55 292.74 376.88 292.24C377.21 291.74 377.61 291.29 378.05 290.89C378.5 290.48 378.99 290.14 379.52 289.86L379.52 289.86C379.74 289.72 379.97 289.61 380.22 289.54C380.46 289.46 380.71 289.42 380.97 289.41C381.22 289.4 381.48 289.43 381.73 289.49C381.98 289.54 382.22 289.64 382.44 289.76C382.67 289.88 386.74 291.41 386.74 292.35L383.34 343.94C383.35 346.05 384.87 350.24 382.77 351.29Z" />
					<path id="Path_973" class="shp14" d="M381.69 418.41L381.29 420.93L376.96 418.69C376.76 418.59 376.57 418.46 376.4 418.31C376.24 418.16 376.1 417.98 375.98 417.79C375.87 417.59 375.79 417.38 375.74 417.16C375.7 416.94 375.68 416.71 375.7 416.49L375.7 364.31C375.76 363.71 375.89 363.12 376.08 362.56C376.28 361.99 376.55 361.45 376.89 360.95C377.22 360.45 377.61 360 378.06 359.59C378.5 359.19 379 358.85 379.53 358.57L379.53 358.57C379.73 358.44 379.94 358.34 380.16 358.27C380.39 358.2 380.62 358.15 380.85 358.13C381.09 358.11 381.32 358.12 381.55 358.16C381.79 358.19 382.01 358.25 382.23 358.34L386.16 360.51L383.36 412.66C383.35 414.79 381.69 418.41 381.69 418.41Z" />
					<path id="Path_974" class="shp11" d="M383.35 351.79L383.35 351.79C381.24 352.84 379.52 351.98 379.52 349.88L379.52 297.7C379.57 297.1 379.7 296.51 379.9 295.94C380.1 295.38 380.37 294.84 380.71 294.34C381.04 293.84 381.43 293.39 381.88 292.99C382.33 292.59 382.82 292.24 383.35 291.96L383.35 291.96C385.46 290.91 387.17 291.77 387.17 293.87L387.17 346.04C387.12 346.64 386.99 347.23 386.79 347.8C386.59 348.36 386.33 348.9 385.99 349.4C385.66 349.9 385.27 350.36 384.82 350.76C384.38 351.16 383.88 351.51 383.35 351.79Z" />
					<path id="Path_975" class="shp11" d="M383.35 420.53L383.35 420.53C381.24 421.58 379.52 420.72 379.52 418.61L379.52 366.44C379.57 365.84 379.7 365.25 379.9 364.69C380.1 364.12 380.37 363.58 380.71 363.08C381.04 362.58 381.43 362.13 381.88 361.73C382.32 361.32 382.82 360.98 383.35 360.7L383.35 360.7C385.46 359.65 387.17 360.51 387.17 362.62L387.17 414.79C387.12 415.39 386.99 415.98 386.79 416.54C386.59 417.11 386.32 417.65 385.99 418.15C385.66 418.65 385.27 419.1 384.82 419.5C384.37 419.91 383.88 420.25 383.35 420.53L383.35 420.53Z" />
					<path id="Path_976" class="shp15" d="M219.18 341.22L208.4 368.74L224.42 375.08L234.88 353.52L233.71 282.27L219.18 341.22Z" />
					<path id="Path_977" fill-rule="evenodd" class="shp16" d="M227.28 338.81C229.32 338.23 231.53 337.51 232.37 337.63L233.12 341L234.23 344.6L229.98 344.6C229.98 344.6 226.94 343.79 226.84 343.36C226.67 342.69 227.34 339.75 227.28 338.81Z" />
					<path id="Path_978" fill-rule="evenodd" class="shp17" d="M308.1 399.71C312.72 469.49 315.19 518.73 318.13 588.61C308.89 592.9 293.69 592.36 286.16 585.51C281.28 515.13 275.36 465.13 270.1 394.77L308.1 399.71Z" />
					<path id="Path_979" fill-rule="evenodd" class="shp17" d="M239.22 382.73C238.27 391.99 236.03 401.21 236.35 410.51C237.32 438.65 241.51 466.61 243.1 494.71L247.35 568.92C248.85 573.23 268.39 572.62 276.1 569.79L274.77 424.12L272.82 391.15L239.22 382.73Z" />
					<path id="Path_980" fill-rule="evenodd" class="shp18" d="M259.67 268.2C247.83 276.48 246.24 307.55 243.18 321.42L246.39 397.73L285.95 416.56L287.6 274.84L284.85 271.38L267.19 279.25L263.51 276.09L259.67 268.2Z" />
					<path id="Path_981" fill-rule="evenodd" class="shp16" d="M282.56 253.35C281.45 261.53 281.65 265.78 282.68 273.95L267.96 279.6L259.46 278.07C259.09 272.82 258.71 267.64 258.16 262.39L282.56 253.35Z" />
					<path id="Path_982" fill-rule="evenodd" class="shp19" d="M266.94 279.28L270.8 286.58L269.38 288.98L265.85 290.76L268.71 299.01C261.69 317.75 259.81 336.25 258.75 357.47C256.09 337.98 255.1 316.82 258.58 296.24L264.2 289.84L262.28 287.19L261.53 284.39L266.33 278.99L266.94 279.28Z" />
					<path id="Path_983" fill-rule="evenodd" class="shp20" d="M281.88 266.51C277.88 274.37 271.04 277.06 266.33 279.13L270.97 288.2C282.65 280.64 283.16 277.23 285.29 272.89L281.88 266.51Z" />
					<path id="Path_984" fill-rule="evenodd" class="shp20" d="M258.69 268.1C259.94 272.39 266.55 279.03 266.55 279.03L260.22 285.69C260.22 285.69 256.85 278.81 257.86 272.51L258.69 268.1Z" />
					<path id="Path_985" fill-rule="evenodd" class="shp15" d="M258.2 268.18C242.69 268.6 235.57 276.72 232.51 288.5C227.79 306.72 235.17 333.96 236.48 359.84C237.06 371.48 236.78 385.93 236.1 399.74C235.67 408.26 234.03 462.13 233.41 469.36L250.91 476.57C253.77 451.4 257.92 374.63 255.89 354.82C253.24 329.13 247.6 289.52 258.2 268.18Z" />
					<path id="Path_986" fill-rule="evenodd" class="shp15" d="M319.87 473.56L270.03 476.43C264.2 450.75 259.58 338.08 268.53 311.47C272.97 298.32 276.49 289.53 285.96 276.9L286.32 276.04C286.8 277.12 285.75 272.72 286.61 273.92C288.94 277.22 294.74 280.35 300.15 283.81C308.52 289.19 317.07 296.22 319.01 300.55C322.75 309.01 312.51 349.56 309.35 387.91C308.05 403.94 318.85 463.38 319.87 473.56Z" />
					<path id="Path_987" fill-rule="evenodd" class="shp21" d="M285.76 272.77C270.61 297.19 263.27 316.66 263.08 354.21C268.56 340.47 273.63 327.18 281.21 314.49L275.13 305.07L285.06 303.83C286.56 294.83 290.12 287.76 293.31 279.3L285.76 272.77Z" />
					<path id="Path_988" fill-rule="evenodd" class="shp21" d="M258.52 267.91L251.17 268.78L242.17 289.66L247.8 295.42L240.97 302.85L255.42 353.52C254.27 324.85 247.53 294.31 258.52 267.91Z" />
					<path id="Path_989" fill-rule="evenodd" class="shp21" d="M299.8 298.24L284.99 364.05L304.67 375.06C311.66 356.96 317.47 328.78 319.9 310.6C320.86 303.42 317.9 296.66 312.4 295.24C308.38 294.18 302.53 295.47 299.8 298.24Z" />
					<path id="Path_990" class="shp22" d="M257.64 267.42L258.2 267.42C257.82 268.17 257.45 269.01 257.1 269.83C248.58 273.91 245.25 282.93 243.61 291.71L241.63 291.32C243.44 281.51 247.25 271.36 257.64 267.42Z" />
					<path id="Path_991" class="shp22" d="M287.93 281.77C288.21 278.17 287.79 275.37 286.3 273.23C286.3 272.91 286.4 272.81 286.65 273.15C286.87 273.44 287.1 273.72 287.35 274C287.59 274.28 287.84 274.54 288.1 274.8C288.36 275.06 288.63 275.31 288.91 275.54C289.18 275.78 289.47 276.01 289.76 276.23C289.84 276.7 289.9 277.17 289.95 277.64C289.99 278.11 290.02 278.59 290.04 279.06C290.05 279.53 290.05 280.01 290.03 280.48C290.02 280.96 289.98 281.43 289.94 281.9C289.54 286.92 287.91 293.29 285.85 301.34C284.35 307.1 282.68 313.75 281.06 321.33L279.08 320.97C280.71 313.32 282.41 306.69 283.88 300.91C285.92 292.93 287.54 286.63 287.93 281.77Z" />
					<path id="Path_992" fill-rule="evenodd" class="shp19" d="M281.21 315.12C284.53 315.6 286.55 320.03 285.71 325.02C284.87 330 281.48 333.65 278.15 333.17L276.99 332.99C273.84 331.82 270.76 326.99 273.66 323.24L280.08 314.94L281.21 315.12Z" />
					<path id="Path_993" fill-rule="evenodd" class="shp23" d="M280.31 315.01C283.64 315.5 285.66 319.93 284.81 324.91C283.97 329.89 280.58 333.55 277.26 333.06C273.93 332.57 271.91 328.14 272.76 323.16C273.6 318.18 276.96 314.5 280.31 315.01Z" />
					<path id="Path_994" fill-rule="evenodd" class="shp19" d="M277.77 319.43C279.36 319.82 280.34 321.79 279.94 324.18C279.54 326.57 277.9 328.32 276.31 328.09L273.77 327.49C272.62 326.74 273.58 325.24 274.15 323.34L275.47 318.89L277.77 319.43Z" />
					<path id="Path_995" fill-rule="evenodd" class="shp9" d="M275.61 317.58C277.67 317.88 278.93 320.64 278.4 323.73C277.88 326.82 275.78 329.09 273.71 328.79C271.64 328.49 270.39 325.74 270.92 322.64C271.45 319.55 273.57 317.26 275.61 317.58Z" />
					<path id="Path_996" fill-rule="evenodd" class="shp23" d="M275.07 318.95C276.33 319.13 277.04 321.2 276.65 323.45C276.26 325.7 274.91 327.49 273.65 327.31C272.39 327.13 271.68 325.1 272.07 322.81C272.47 320.52 273.76 318.76 275.07 318.95Z" />
					<path id="Path_997" fill-rule="evenodd" class="shp24" d="M245.79 240.86L250.29 261.3L255.33 270.88L262.95 272.08C262.95 272.08 275.8 266.84 278.92 265.28C282.05 263.72 282.03 263.58 283.53 255.91L284.6 255.35L287.68 249.15L288.38 219.6C274.34 215.56 257.59 215.34 250.9 217.6C244.2 219.87 245.79 240.86 245.79 240.86Z" />
					<path id="Path_998" fill-rule="evenodd" class="shp17" d="M287.64 218.31L291.69 219.06L296.53 231.06L290.88 246.8C290.88 246.8 286.26 253.01 284.56 255.34C284.56 255.34 288.16 246.82 285.09 245.02C283.76 244.27 282.41 243.19 279.64 247.27C279.19 247.92 279.05 251.92 279.05 251.92L276.62 252.44L277.83 242.81C277.87 242.16 277.89 241.5 277.91 240.85C277.93 240.2 277.94 239.54 277.94 238.89C277.94 238.24 277.93 237.58 277.91 236.93C277.89 236.27 277.87 235.62 277.83 234.97C277.2 235.15 276.56 235.31 275.91 235.46C275.27 235.61 274.63 235.75 273.98 235.88C273.33 236 272.68 236.11 272.03 236.21C271.38 236.31 270.72 236.4 270.07 236.47C261.39 237.06 243.74 237.16 243.59 234.22C243.28 228.51 247.14 213.23 247.14 213.23L274.19 208.25L287.64 218.31Z" />
					<path id="Path_999" fill-rule="evenodd" class="shp22" d="M246.58 312.83C248.01 304.75 246.86 290.76 242.54 290.76L242.54 290.76C238.23 290.76 232.13 304.75 230.7 312.83L232.56 312.7C233.72 306.14 239.31 292.67 242.19 292.74L242.19 292.74C245.38 292.74 245.81 306.23 244.65 312.83L246.58 312.83Z" />
					<path id="Path_1000" fill-rule="evenodd" class="shp25" d="M262.62 320.42L260.41 321.56L260.41 389.55L262.62 388.4L262.62 320.42Z" />
					<path id="Path_1001" fill-rule="evenodd" class="shp26" d="M262.61 320.42L232.93 304.21L230.7 305.37L260.39 321.58L262.61 320.42Z" />
					<path id="Path_1002" fill-rule="evenodd" class="shp17" d="M260.43 321.57L230.74 305.36L230.74 373.34L260.43 389.55L260.43 321.57Z" />
					<path id="Path_1003" fill-rule="evenodd" class="shp24" d="M247.37 347.51L242.31 342.32L238.34 338.77L231.76 336.92L230.26 340.37L236.33 343.47L231.68 342.47L227.31 338.82L224.03 340.69L223.07 342.31L223.16 351.63L227.18 355.74C227.18 355.74 236.18 357.78 240.6 359.64L247.37 347.51Z" />
					<path id="Path_1004" fill-rule="evenodd" class="shp21" d="M245.68 345.47C261.75 352.03 285.15 362.22 285.15 362.22C285.15 362.22 298.36 370.14 304.99 373.72C304.65 374.71 304.29 375.7 303.9 376.67C303.51 377.64 303.09 378.6 302.65 379.55C302.2 380.5 301.73 381.44 301.23 382.36C300.73 383.28 300.2 384.19 299.65 385.08L285.56 384.05L238.65 360.81L245.68 345.47Z" />
					<path id="Path_1005" class="shp27" d="M171.23 499.41L171.23 518.45C171.23 530.08 180.74 540.6 192.36 546.41L339 619.75C350.62 625.56 360.13 620.81 360.13 609.18L360.13 593.86L171.23 499.41Z" />
					<path id="Path_1006" class="shp10" d="M297.42 590.8L232.32 558.25L232.32 538.75L297.42 571.3L297.42 590.8Z" />
					<path id="Path_1007" class="shp15" d="M244.21 553.21L241.16 551.71L241.16 549.63C241.17 549.54 241.17 549.44 241.17 549.34C241.17 549.25 241.16 549.15 241.15 549.05C241.14 548.96 241.13 548.86 241.12 548.76C241.1 548.67 241.08 548.57 241.06 548.48C241.04 548.43 241.02 548.38 240.99 548.34C240.96 548.3 240.92 548.25 240.89 548.22C240.85 548.18 240.81 548.14 240.76 548.11C240.72 548.08 240.67 548.06 240.63 548.04C240.38 547.92 240.21 547.92 240.15 548.04C240.12 548.13 240.1 548.22 240.09 548.31C240.07 548.4 240.06 548.49 240.05 548.59C240.04 548.68 240.04 548.77 240.04 548.87C240.04 548.96 240.04 549.05 240.05 549.15L240.05 554.6C240.04 554.69 240.04 554.79 240.04 554.89C240.04 554.99 240.05 555.09 240.06 555.18C240.07 555.28 240.08 555.38 240.09 555.48C240.11 555.57 240.12 555.67 240.15 555.77C240.17 555.82 240.19 555.87 240.22 555.92C240.25 555.97 240.28 556.01 240.32 556.06C240.36 556.1 240.41 556.14 240.45 556.17C240.5 556.2 240.55 556.23 240.6 556.25C240.84 556.37 240.99 556.35 241.05 556.25C241.08 556.16 241.1 556.06 241.11 555.96C241.13 555.86 241.14 555.77 241.15 555.67C241.16 555.57 241.17 555.47 241.17 555.37C241.17 555.27 241.16 555.17 241.16 555.08L241.16 553.58L244.21 555.08L244.21 555.53C244.22 555.74 244.23 555.95 244.22 556.15C244.22 556.36 244.2 556.57 244.18 556.77C244.16 556.98 244.13 557.18 244.09 557.39C244.05 557.59 244.01 557.79 243.95 557.99C243.9 558.1 243.84 558.2 243.76 558.29C243.68 558.38 243.59 558.46 243.49 558.52C243.39 558.59 243.28 558.64 243.17 558.68C243.05 558.71 242.93 558.74 242.82 558.74C242.63 558.75 242.44 558.75 242.25 558.74C242.06 558.72 241.87 558.69 241.69 558.65C241.51 558.61 241.33 558.55 241.15 558.48C240.97 558.41 240.8 558.33 240.64 558.23C240.44 558.13 240.24 558.02 240.04 557.91C239.84 557.79 239.65 557.66 239.47 557.53C239.28 557.4 239.1 557.26 238.93 557.11C238.76 556.96 238.59 556.8 238.43 556.64C238.3 556.51 238.17 556.36 238.06 556.22C237.94 556.07 237.84 555.91 237.74 555.75C237.64 555.58 237.55 555.42 237.48 555.24C237.4 555.07 237.33 554.9 237.28 554.71C237.22 554.49 237.18 554.27 237.14 554.04C237.1 553.82 237.07 553.59 237.05 553.36C237.03 553.14 237.01 552.91 237 552.68C236.99 552.45 236.99 552.22 237 551.99L237 548.56C237 548.41 237 548.25 237 548.1C237 547.94 237.01 547.79 237.01 547.63C237.02 547.48 237.03 547.32 237.04 547.17C237.05 547.01 237.06 546.86 237.08 546.7C237.09 546.61 237.11 546.52 237.14 546.43C237.17 546.34 237.21 546.26 237.25 546.17C237.29 546.09 237.34 546.01 237.4 545.94C237.46 545.87 237.53 545.8 237.6 545.74C237.68 545.68 237.77 545.62 237.87 545.57C237.96 545.52 238.06 545.49 238.17 545.46C238.27 545.43 238.37 545.41 238.48 545.4C238.59 545.4 238.69 545.4 238.8 545.41C238.95 545.43 239.1 545.45 239.26 545.48C239.41 545.51 239.56 545.55 239.71 545.6C239.85 545.64 240 545.69 240.14 545.75C240.28 545.81 240.42 545.88 240.56 545.95C240.77 546.05 240.98 546.16 241.18 546.28C241.38 546.4 241.57 546.53 241.76 546.67C241.95 546.8 242.13 546.95 242.3 547.1C242.48 547.26 242.65 547.42 242.81 547.59C242.94 547.72 243.06 547.86 243.17 548C243.29 548.15 243.39 548.3 243.49 548.46C243.58 548.62 243.67 548.78 243.75 548.95C243.83 549.12 243.9 549.29 243.96 549.47C244.01 549.68 244.05 549.89 244.09 550.1C244.13 550.31 244.16 550.52 244.18 550.74C244.21 550.95 244.22 551.16 244.23 551.38C244.24 551.59 244.24 551.81 244.23 552.02L244.21 553.21Z" />
					<path id="Path_1008" fill-rule="evenodd" class="shp15" d="M252.29 559C252.29 559.21 252.29 559.41 252.29 559.62C252.29 559.83 252.28 560.03 252.27 560.24C252.27 560.44 252.26 560.65 252.24 560.85C252.23 561.06 252.21 561.26 252.2 561.47C252.19 561.57 252.17 561.67 252.15 561.77C252.12 561.87 252.08 561.97 252.04 562.06C252 562.15 251.94 562.24 251.88 562.33C251.82 562.41 251.75 562.49 251.68 562.56C251.6 562.62 251.51 562.68 251.41 562.73C251.32 562.78 251.22 562.81 251.12 562.84C251.02 562.87 250.92 562.89 250.81 562.9C250.71 562.91 250.6 562.91 250.5 562.89C250.34 562.88 250.19 562.85 250.04 562.82C249.89 562.79 249.74 562.76 249.6 562.71C249.45 562.66 249.31 562.61 249.17 562.55C249.03 562.49 248.89 562.43 248.76 562.35C248.6 562.28 248.45 562.2 248.3 562.11C248.16 562.02 248.01 561.93 247.87 561.83C247.73 561.74 247.59 561.64 247.45 561.53C247.32 561.42 247.19 561.31 247.06 561.2C246.94 561.09 246.82 560.98 246.71 560.86C246.6 560.75 246.5 560.63 246.39 560.5C246.29 560.37 246.2 560.24 246.11 560.11C246.02 559.98 245.93 559.84 245.86 559.7C245.78 559.57 245.72 559.45 245.66 559.32C245.6 559.19 245.55 559.05 245.5 558.92C245.46 558.78 245.42 558.65 245.39 558.51C245.35 558.37 245.33 558.23 245.31 558.09C245.25 557.57 245.22 556.71 245.22 555.5L245.22 553.49C245.22 553.29 245.22 553.08 245.22 552.88C245.22 552.67 245.23 552.47 245.23 552.26C245.24 552.06 245.25 551.85 245.26 551.65C245.27 551.44 245.29 551.24 245.31 551.03C245.32 550.93 245.33 550.83 245.36 550.73C245.38 550.63 245.42 550.53 245.46 550.44C245.51 550.35 245.56 550.26 245.62 550.18C245.68 550.09 245.75 550.02 245.82 549.95C245.91 549.88 245.99 549.82 246.09 549.77C246.18 549.72 246.28 549.68 246.38 549.65C246.48 549.62 246.59 549.6 246.69 549.59C246.8 549.59 246.9 549.59 247.01 549.6C247.16 549.62 247.31 549.64 247.46 549.67C247.61 549.71 247.76 549.75 247.91 549.79C248.05 549.84 248.2 549.89 248.34 549.95C248.48 550.01 248.62 550.08 248.76 550.15C248.91 550.22 249.06 550.31 249.21 550.39C249.35 550.48 249.5 550.57 249.64 550.67C249.78 550.76 249.92 550.86 250.05 550.97C250.19 551.08 250.32 551.19 250.44 551.3C250.56 551.41 250.68 551.52 250.79 551.64C250.9 551.75 251.01 551.87 251.11 552C251.21 552.13 251.31 552.26 251.4 552.39C251.49 552.52 251.57 552.66 251.65 552.8C251.72 552.93 251.79 553.05 251.84 553.18C251.9 553.31 251.95 553.45 252 553.58C252.05 553.72 252.09 553.85 252.12 553.99C252.15 554.13 252.18 554.27 252.2 554.41C252.22 554.63 252.23 554.84 252.24 555.06C252.26 555.27 252.27 555.49 252.27 555.7C252.28 555.92 252.29 556.13 252.29 556.35C252.29 556.56 252.29 556.78 252.29 556.99L252.29 559ZM249.23 553.62C249.23 553.53 249.23 553.44 249.23 553.35C249.23 553.25 249.23 553.16 249.22 553.07C249.21 552.98 249.2 552.89 249.19 552.8C249.17 552.71 249.16 552.62 249.14 552.53C249.12 552.48 249.1 552.44 249.08 552.4C249.06 552.36 249.03 552.32 249 552.28C248.97 552.25 248.93 552.22 248.89 552.19C248.85 552.16 248.81 552.14 248.77 552.12C248.61 552.03 248.49 552.03 248.4 552.12C248.37 552.2 248.35 552.28 248.33 552.36C248.3 552.45 248.29 552.53 248.28 552.62C248.27 552.71 248.26 552.79 248.26 552.88C248.26 552.97 248.27 553.06 248.28 553.14L248.28 558.63C248.27 558.74 248.27 558.85 248.27 558.96C248.27 559.06 248.27 559.17 248.28 559.28C248.29 559.39 248.3 559.5 248.31 559.61C248.32 559.71 248.34 559.82 248.36 559.93C248.37 559.98 248.39 560.02 248.42 560.07C248.44 560.11 248.47 560.15 248.51 560.19C248.54 560.23 248.58 560.26 248.62 560.29C248.66 560.32 248.7 560.34 248.75 560.36C248.95 560.46 249.09 560.45 249.15 560.29C249.17 560.18 249.19 560.08 249.2 559.97C249.21 559.87 249.22 559.76 249.23 559.66C249.24 559.55 249.24 559.45 249.24 559.34C249.24 559.23 249.24 559.13 249.23 559.02L249.23 553.62Z" />
					<path id="Path_1009" class="shp15" d="M260.24 556.11L260.24 567.85L257.56 566.51L255.97 560.38L255.97 565.72L253.42 564.44L253.42 552.7L255.97 553.98L257.68 560.12L257.68 554.87L260.24 556.11Z" />
					<path id="Path_1010" class="shp15" d="M268.27 560.13L268.27 571.86L265.6 570.52L264.02 564.39L264.02 569.73L261.46 568.46L261.46 556.72L264.02 558L265.72 564.14L265.72 558.85L268.27 560.13Z" />
					<path id="Path_1011" class="shp15" d="M269.5 560.74L274.59 563.29L274.59 565.64L272.55 564.62L272.55 566.87L274.45 567.82L274.45 570.07L272.55 569.12L272.55 571.69L274.8 572.82L274.8 575.12L269.51 572.47L269.5 560.74Z" />
					<path id="Path_1012" class="shp15" d="M282.8 572.5L279.74 571L279.74 568.96C279.75 568.87 279.75 568.77 279.75 568.67C279.75 568.57 279.74 568.48 279.73 568.38C279.72 568.28 279.71 568.19 279.7 568.09C279.68 567.99 279.66 567.9 279.64 567.8C279.62 567.75 279.6 567.71 279.57 567.66C279.54 567.62 279.51 567.58 279.47 567.54C279.44 567.5 279.4 567.47 279.35 567.44C279.31 567.41 279.26 567.39 279.21 567.37C278.96 567.24 278.8 567.25 278.73 567.37C278.71 567.46 278.69 567.55 278.67 567.64C278.66 567.73 278.65 567.82 278.64 567.92C278.63 568.01 278.62 568.1 278.62 568.2C278.62 568.29 278.62 568.38 278.63 568.48L278.63 573.93C278.62 574.03 278.62 574.13 278.62 574.23C278.63 574.32 278.63 574.42 278.64 574.52C278.65 574.61 278.66 574.71 278.67 574.81C278.69 574.9 278.71 575 278.73 575.1C278.75 575.15 278.77 575.2 278.8 575.25C278.83 575.3 278.87 575.35 278.91 575.39C278.94 575.43 278.99 575.47 279.04 575.5C279.08 575.54 279.13 575.57 279.19 575.59C279.41 575.7 279.56 575.69 279.63 575.59C279.65 575.49 279.67 575.4 279.69 575.3C279.71 575.2 279.72 575.1 279.73 575.01C279.74 574.91 279.74 574.81 279.74 574.71C279.74 574.61 279.74 574.51 279.73 574.41L279.73 572.91L282.79 574.41L282.79 574.87C282.8 575.08 282.81 575.29 282.81 575.5C282.8 575.71 282.79 575.92 282.77 576.13C282.75 576.34 282.72 576.55 282.68 576.75C282.65 576.96 282.6 577.17 282.55 577.37C282.49 577.48 282.43 577.58 282.35 577.67C282.27 577.76 282.18 577.84 282.08 577.9C281.98 577.97 281.87 578.02 281.76 578.06C281.65 578.1 281.53 578.12 281.41 578.12C281.22 578.13 281.03 578.13 280.84 578.12C280.65 578.1 280.47 578.07 280.28 578.03C280.1 577.98 279.92 577.92 279.75 577.85C279.57 577.78 279.4 577.7 279.24 577.6C279.03 577.51 278.83 577.4 278.63 577.28C278.43 577.17 278.23 577.04 278.04 576.91C277.86 576.78 277.67 576.64 277.5 576.49C277.32 576.34 277.15 576.18 276.99 576.01C276.86 575.88 276.73 575.74 276.62 575.59C276.5 575.44 276.39 575.29 276.3 575.13C276.2 574.96 276.11 574.8 276.04 574.62C275.96 574.45 275.89 574.28 275.84 574.1C275.78 573.87 275.74 573.65 275.7 573.42C275.66 573.2 275.63 572.97 275.61 572.74C275.58 572.51 275.57 572.28 275.56 572.05C275.55 571.82 275.55 571.6 275.55 571.37L275.55 567.92C275.55 567.77 275.55 567.61 275.55 567.46C275.55 567.3 275.56 567.15 275.57 566.99C275.57 566.84 275.58 566.68 275.6 566.53C275.61 566.37 275.63 566.22 275.64 566.07C275.66 565.97 275.68 565.88 275.7 565.79C275.73 565.71 275.77 565.62 275.81 565.54C275.86 565.46 275.91 565.38 275.97 565.31C276.03 565.23 276.09 565.17 276.16 565.11C276.24 565.04 276.33 564.98 276.43 564.94C276.52 564.89 276.62 564.85 276.73 564.82C276.83 564.79 276.94 564.78 277.04 564.77C277.15 564.76 277.25 564.76 277.36 564.78C277.51 564.79 277.67 564.82 277.82 564.85C277.97 564.88 278.12 564.92 278.26 564.96C278.41 565.01 278.56 565.06 278.7 565.12C278.84 565.18 278.98 565.25 279.11 565.32C279.32 565.42 279.53 565.53 279.73 565.65C279.93 565.77 280.13 565.9 280.31 566.03C280.5 566.17 280.69 566.32 280.86 566.47C281.04 566.63 281.2 566.79 281.36 566.96C281.49 567.09 281.61 567.23 281.73 567.37C281.84 567.52 281.95 567.67 282.04 567.83C282.14 567.99 282.23 568.15 282.31 568.32C282.39 568.48 282.46 568.66 282.52 568.83C282.57 569.04 282.61 569.25 282.65 569.46C282.69 569.67 282.72 569.89 282.74 570.1C282.77 570.31 282.78 570.53 282.79 570.74C282.8 570.96 282.8 571.17 282.79 571.39L282.8 572.5Z" />
					<path id="Path_1013" class="shp15" d="M290.06 571.02L290.06 573.37L288.24 572.46L288.24 581.87L285.19 580.37L285.19 570.93L283.38 570.03L283.38 567.68L290.06 571.02Z" />
					<path id="Path_1014" class="shp10" d="M193.4 531.64L190.71 527.96L183.05 530.69C183.11 530.79 183.19 530.89 183.27 530.98C183.34 531.07 183.43 531.16 183.52 531.24C183.61 531.32 183.7 531.39 183.8 531.46C183.9 531.53 184 531.59 184.11 531.65L202.69 540.94C202.76 540.99 202.85 541.02 202.94 541.05C203.03 541.08 203.12 541.1 203.21 541.11C203.3 541.12 203.39 541.12 203.49 541.11C203.58 541.1 203.67 541.08 203.76 541.05L196.09 530.64L193.4 531.64Z" />
					<path id="Path_1015" class="shp10" d="M203.76 526.39C203.69 526.3 203.61 526.2 203.53 526.11C203.45 526.02 203.37 525.93 203.28 525.85C203.19 525.77 203.09 525.7 202.99 525.63C202.9 525.56 202.79 525.5 202.68 525.44L184.11 516.15C184.03 516.1 183.95 516.06 183.86 516.03C183.77 516.01 183.68 515.99 183.59 515.98C183.5 515.97 183.41 515.97 183.31 515.98C183.22 515.99 183.13 516.02 183.05 516.05L193.4 530.15L203.76 526.39Z" />
					<path id="Path_1016" class="shp10" d="M182.55 516.75L182.55 529.62L190.04 527L182.55 516.75Z" />
					<path id="Path_1017" class="shp10" d="M196.76 530.36L204.25 540.47L204.25 527.6L196.76 530.36Z" />
					<path id="Path_1018" class="shp10" d="M225.02 549.51C225.04 549.57 225.04 549.63 225.04 549.68C225.03 549.74 225.02 549.79 225 549.85C224.97 549.9 224.94 549.95 224.91 549.99C224.87 550.03 224.82 550.07 224.77 550.1L222.42 551.25C222.39 551.27 222.36 551.29 222.32 551.3C222.29 551.31 222.25 551.32 222.22 551.33C222.18 551.34 222.15 551.35 222.11 551.35C222.07 551.35 222.04 551.35 222 551.35C221.96 551.35 221.92 551.35 221.87 551.34C221.83 551.34 221.79 551.33 221.75 551.32C221.71 551.31 221.66 551.3 221.62 551.29C221.58 551.28 221.54 551.27 221.5 551.25L221.4 551.21C221.38 551.2 221.36 551.19 221.34 551.19C221.32 551.18 221.3 551.17 221.28 551.16C221.26 551.15 221.24 551.14 221.23 551.14C221.21 551.13 221.19 551.12 221.17 551.11C221.08 551.06 220.98 551.01 220.89 550.95C220.8 550.9 220.71 550.85 220.62 550.79C220.53 550.74 220.44 550.68 220.35 550.62C220.26 550.57 220.17 550.51 220.08 550.45C219.92 550.33 219.76 550.22 219.6 550.1C219.44 549.98 219.29 549.86 219.13 549.73C218.98 549.61 218.83 549.48 218.68 549.35C218.53 549.22 218.39 549.08 218.24 548.95C218.03 548.74 217.81 548.54 217.6 548.33C217.39 548.12 217.18 547.91 216.97 547.69C216.77 547.48 216.56 547.26 216.37 547.04C216.17 546.81 215.97 546.59 215.78 546.36C215.51 546.05 215.25 545.73 215 545.41C214.74 545.09 214.49 544.77 214.25 544.44C214 544.11 213.76 543.78 213.53 543.44C213.29 543.1 213.06 542.76 212.84 542.42C212.02 541.19 211.33 540.07 210.79 539.06C210.25 538.04 209.81 537.14 209.49 536.34C209.41 536.17 209.34 536 209.28 535.83C209.21 535.65 209.14 535.48 209.08 535.31C209.02 535.13 208.96 534.96 208.9 534.78C208.84 534.61 208.79 534.43 208.74 534.25C208.7 534.13 208.67 534.01 208.64 533.88C208.6 533.76 208.58 533.63 208.55 533.51C208.52 533.38 208.49 533.26 208.47 533.13C208.44 533.01 208.42 532.88 208.4 532.76C208.39 532.68 208.38 532.6 208.37 532.53C208.36 532.45 208.35 532.38 208.34 532.3C208.34 532.22 208.33 532.15 208.33 532.07C208.33 531.99 208.32 531.92 208.32 531.84L208.32 531.5C208.33 531.46 208.34 531.42 208.35 531.38C208.36 531.35 208.37 531.31 208.38 531.27C208.4 531.24 208.41 531.2 208.43 531.17C208.44 531.13 208.46 531.1 208.48 531.07C208.5 531.04 208.52 531.01 208.54 530.99C208.56 530.96 208.59 530.94 208.61 530.91C208.64 530.89 208.66 530.87 208.69 530.85C208.72 530.84 208.75 530.82 208.78 530.81L211.14 529.63C211.18 529.61 211.22 529.59 211.27 529.58C211.32 529.57 211.37 529.56 211.42 529.56C211.47 529.56 211.51 529.57 211.56 529.58C211.61 529.59 211.65 529.61 211.7 529.63C211.74 529.65 211.78 529.67 211.81 529.7C211.85 529.72 211.89 529.75 211.92 529.77C211.96 529.8 211.99 529.83 212.02 529.87C212.05 529.9 212.08 529.93 212.11 529.97C212.14 530 212.17 530.04 212.19 530.08C212.22 530.12 212.25 530.16 212.27 530.2C212.3 530.23 212.32 530.27 212.34 530.32C212.37 530.36 212.39 530.4 212.41 530.44L214.3 534.98C214.32 535.03 214.34 535.08 214.36 535.14C214.38 535.19 214.39 535.25 214.4 535.3C214.41 535.36 214.41 535.42 214.41 535.47C214.41 535.53 214.4 535.59 214.39 535.64C214.38 535.68 214.37 535.73 214.35 535.77C214.33 535.81 214.31 535.85 214.29 535.88C214.26 535.92 214.23 535.95 214.2 535.98C214.16 536.01 214.13 536.04 214.09 536.06L213.22 536.49C213.21 536.49 213.21 536.5 213.2 536.51C213.19 536.51 213.19 536.52 213.18 536.53C213.18 536.54 213.17 536.54 213.17 536.55C213.16 536.56 213.16 536.57 213.16 536.58C213.16 536.59 213.16 536.6 213.16 536.61C213.15 536.62 213.15 536.63 213.15 536.64C213.15 536.65 213.15 536.66 213.16 536.67C213.16 536.68 213.16 536.69 213.16 536.7C213.18 536.78 213.2 536.87 213.22 536.95C213.24 537.04 213.27 537.12 213.3 537.21C213.32 537.29 213.35 537.37 213.38 537.45C213.41 537.54 213.45 537.62 213.48 537.7C213.62 538.05 213.84 538.51 214.13 539.06C214.23 539.24 214.33 539.41 214.43 539.58C214.53 539.75 214.63 539.92 214.74 540.09C214.84 540.26 214.95 540.43 215.06 540.6C215.17 540.76 215.28 540.93 215.39 541.09C215.5 541.26 215.61 541.43 215.73 541.6C215.84 541.77 215.96 541.93 216.07 542.1C216.19 542.26 216.31 542.43 216.43 542.59C216.56 542.75 216.68 542.91 216.81 543.07C216.89 543.17 216.97 543.27 217.06 543.37C217.14 543.47 217.23 543.57 217.31 543.67C217.4 543.77 217.49 543.87 217.57 543.96C217.66 544.06 217.75 544.15 217.84 544.25C217.89 544.3 217.94 544.35 217.99 544.4C218.04 544.45 218.1 544.5 218.15 544.55C218.2 544.6 218.26 544.64 218.31 544.69C218.37 544.73 218.42 544.78 218.48 544.82L218.7 544.98C218.71 544.98 218.72 544.98 218.73 544.98C218.74 544.98 218.75 544.98 218.75 544.98C218.76 544.98 218.77 544.98 218.78 544.98C218.79 544.98 218.8 544.98 218.81 544.98L218.93 544.98L219.93 544.45C219.99 544.43 220.06 544.42 220.12 544.41C220.19 544.41 220.25 544.41 220.32 544.41C220.38 544.42 220.44 544.44 220.51 544.46C220.57 544.48 220.63 544.51 220.68 544.54C220.73 544.56 220.77 544.58 220.81 544.61C220.86 544.63 220.9 544.66 220.94 544.69C220.98 544.72 221.02 544.75 221.05 544.78C221.09 544.82 221.13 544.85 221.16 544.89L221.16 544.89L224.58 548.63C224.64 548.69 224.69 548.76 224.74 548.83C224.79 548.89 224.83 548.97 224.87 549.04C224.91 549.11 224.94 549.19 224.96 549.27C224.99 549.35 225.01 549.43 225.03 549.51L225.02 549.51Z" />
					<path id="Path_1019" class="shp10" d="M321.88 596.76C321.71 596.66 321.54 596.58 321.36 596.52C321.18 596.46 321 596.41 320.81 596.38C320.62 596.35 320.43 596.34 320.24 596.34C320.05 596.35 319.86 596.37 319.68 596.41L313.38 589.48C313.39 589.43 313.39 589.39 313.4 589.34C313.41 589.29 313.41 589.24 313.41 589.2C313.42 589.15 313.42 589.1 313.42 589.05C313.43 589.01 313.43 588.96 313.43 588.91C313.43 588.86 313.43 588.81 313.42 588.76C313.42 588.71 313.42 588.65 313.41 588.6C313.41 588.55 313.4 588.5 313.4 588.45C313.39 588.4 313.39 588.35 313.38 588.3L319.68 587.67C319.82 587.86 319.98 588.04 320.15 588.21C320.32 588.39 320.49 588.55 320.68 588.71C320.86 588.86 321.06 589.01 321.26 589.15C321.46 589.28 321.66 589.4 321.88 589.52C323.87 590.52 325.5 589.7 325.5 587.7C325.45 587.14 325.33 586.58 325.14 586.05C324.95 585.51 324.69 585 324.38 584.53C324.06 584.06 323.69 583.63 323.27 583.25C322.85 582.87 322.38 582.54 321.88 582.28C319.88 581.28 318.26 582.09 318.26 584.08C318.26 584.14 318.26 584.19 318.26 584.24C318.26 584.29 318.27 584.34 318.27 584.39C318.28 584.45 318.28 584.5 318.29 584.55C318.29 584.6 318.3 584.65 318.31 584.7L312.01 585.33C311.86 585.14 311.71 584.96 311.54 584.78C311.37 584.61 311.2 584.44 311.01 584.29C310.83 584.13 310.63 583.99 310.43 583.85C310.23 583.72 310.02 583.59 309.81 583.48C307.81 582.48 306.19 583.29 306.19 585.29C306.24 585.86 306.36 586.41 306.55 586.95C306.74 587.48 306.99 587.99 307.31 588.47C307.62 588.94 307.99 589.37 308.42 589.75C308.84 590.13 309.31 590.45 309.81 590.72C309.97 590.81 310.15 590.89 310.33 590.96C310.5 591.02 310.69 591.07 310.88 591.1C311.06 591.13 311.25 591.14 311.44 591.13C311.63 591.13 311.82 591.11 312.01 591.07L318.31 598C318.3 598.04 318.29 598.09 318.29 598.14C318.28 598.18 318.28 598.23 318.27 598.28C318.27 598.33 318.26 598.37 318.26 598.42C318.26 598.47 318.26 598.52 318.26 598.57C318.31 599.13 318.43 599.69 318.62 600.22C318.8 600.76 319.06 601.27 319.37 601.74C319.69 602.21 320.06 602.64 320.48 603.02C320.91 603.4 321.37 603.73 321.88 603.99C323.88 604.99 325.5 604.19 325.5 602.19C325.45 601.62 325.33 601.06 325.14 600.53C324.95 599.99 324.69 599.48 324.38 599.01C324.06 598.54 323.69 598.11 323.27 597.73C322.85 597.35 322.38 597.02 321.88 596.76L321.88 596.76Z" />
					<path id="Path_1020" class="shp10" d="M349.66 606.65C349.66 610.24 346.74 611.7 343.14 609.91C339.54 608.12 336.64 603.74 336.64 600.16C336.64 596.59 339.55 595.12 343.14 596.91C346.73 598.7 349.66 603.06 349.66 606.65Z" />
					<path id="Path_1021" class="shp28" d="M339 193.94L192.36 120.6C180.74 114.79 171.23 119.54 171.23 131.16L171.23 518.46C171.23 530.08 180.73 540.61 192.36 546.42L193.19 546.84L350.71 203.36C349.9 202.39 349.04 201.47 348.14 200.58C347.24 199.7 346.3 198.86 345.32 198.07C344.34 197.28 343.32 196.54 342.26 195.85C341.2 195.16 340.12 194.52 339 193.94L339 193.94Z" />
					<path id="Path_1022" class="shp2" d="M129.02 385.63L129.23 348.28L225.18 396.18L226 434.03L129.02 385.63Z" />
					<path id="Path_1023" class="shp16" d="M204.17 391.19L196.4 400.56L205.88 422.85L215.38 412.98L214.61 388.89L204.17 391.19Z" />
					<path id="Path_1024" class="shp15" d="M208.4 368.74L199.66 391.05L214.15 396.26L224.42 375.08L208.4 368.74Z" />
					<path id="Path_1025" class="shp29" d="M226.06 610.67L224.62 668.89L141.38 715.75L83.48 715.1L151.38 669.78L147.24 667.1L55.64 682.78L86.56 661.28L226.06 610.67Z" />
					<path id="Path_1026" fill-rule="evenodd" class="shp24" d="M41.8 499.84L43.52 512.39L47.03 524.26L60.55 527.97L62.42 525.53L62.67 515.18L51.59 496.14L41.8 499.84Z" />
					<path id="Path_1027" fill-rule="evenodd" class="shp21" d="M36.81 491.81L36.34 496.9L39.79 499.97L56.94 500.47L56.5 496.7L36.81 491.81Z" />
					<path id="Path_1028" fill-rule="evenodd" class="shp17" d="M39.25 494.79L57.85 497.42L60.35 441.85L80.32 379.64L54.55 375.89L33.55 432.75L33.42 488.84L39.25 494.79Z" />
					<path id="Path_1029" fill-rule="evenodd" class="shp17" d="M43.4 667.99L43.4 675.92L55.64 682.78L88.15 667.99L90.22 646.31L64.06 651.13L43.4 667.99Z" />
					<path id="Path_1030" fill-rule="evenodd" class="shp17" d="M112.59 695.53C113.63 695.53 136 699.33 136 699.33L144.95 711.09L141.51 715.5L89.26 720.64L83.48 715.1L79.2 711.1L84.71 692.78L112.59 695.53Z" />
					<path id="Path_1031" fill-rule="evenodd" class="shp17" d="M66.46 482.25C66.46 483.83 64.06 490.36 64.06 490.36L59.93 521.15L53.04 582.31L40.99 638.09L40.99 671.44L53.73 675.94L71.98 663.54L92.29 558.54L66.46 482.25Z" />
					<path id="Path_1032" fill-rule="evenodd" class="shp30" d="M136 505.51C136 505.51 134.28 590.54 133.6 591.57C132.91 592.61 115.01 700.7 115.01 700.7C115.01 700.7 101.58 712.06 100.55 711.03C99.51 709.99 78.52 702.08 78.52 702.08L91.94 618.42C91.94 618.42 87.17 542.11 86.43 541.31C81.27 535.8 60.53 516.58 60.53 516.58L64.05 490.34L136 505.51Z" />
					<path id="Path_1033" fill-rule="evenodd" class="shp24" d="M207.24 439.84C207.24 438.8 218.94 416.77 218.94 416.77L217.97 400.45L215.64 399.05L210.39 407.59L211.14 417.54L207.39 420.15L204.88 414.62L199.29 405.71L197.27 406.86L199.13 414.87L197.63 433.99L207.24 439.84Z" />
					<path id="Path_1034" fill-rule="evenodd" class="shp21" d="M204.75 428.79L210.43 435.99L203.08 446.5L192.24 427.2L194.76 422.84L204.75 428.79Z" />
					<path id="Path_1035" fill-rule="evenodd" class="shp17" d="M129.16 402.71L167 457.21L191.25 424.73L207.87 440.71L171.57 486.9L158.83 486.9L111.25 433.67C111.25 433.67 112.58 410.42 129.16 402.71Z" />
					<path id="Path_1036" fill-rule="evenodd" class="shp17" d="M129.17 402.7L84.98 376.16L69.49 370.56L54.55 375.89L49.29 402.7L67.65 462.37L59.39 490.82L112.63 521.12L138.59 512.9L137.82 501.62L134.66 455.02L138.33 421.06L129.17 402.7Z" />
					<path id="Path_1037" fill-rule="evenodd" class="shp24" d="M111.21 395.01L111.21 375.04C111.21 375.04 90.22 367.81 89.18 368.85C88.14 369.88 79.2 381.24 79.2 381.24L93.31 393.63L111.21 395.01Z" />
					<path id="Path_1038" fill-rule="evenodd" class="shp24" d="M102.7 384.51C103.04 383.13 119.64 371.81 119.64 371.81L121.43 338.77L110.76 350.81L102.7 384.51Z" />
					<path id="Path_1039" fill-rule="evenodd" class="shp31" d="M125.67 333.69L125.67 325.27L89.03 316.68L73.05 340.63L77.84 375.06L100.04 384.51L113.2 370.56L115.8 349.4L125.67 333.69Z" />
					<path id="Path_1040" fill-rule="evenodd" class="shp21" d="M80.5 379.53C80.46 379.58 96.24 389.52 96.24 389.52L111.3 391.9C111.3 391.9 112.86 395.41 112.4 395.41L94.18 395.41L76 383.42L76.61 379.56L81.77 377.95L80.5 379.53Z" />
					<path id="Path_1041" class="shp0" d="M0.63 244.25L0.56 49.87L195.98 146.89L195.98 341.25L0.63 244.25Z" />
					<path id="Path_1042" class="shp21" d="M69.93 179.98C69.46 177.02 67.42 158.99 67.42 158.99L65.29 149.39L63.46 137.08C63.46 137.08 63.36 131.84 62.77 127.34C62.18 122.84 56.99 117.96 52.77 114.6L47.53 107.71L47.53 102.91C47.53 102.91 48.18 100.53 48.73 100.86C49.28 101.19 50.17 98.01 50.23 96.92C50.23 96.45 48.73 95.7 48.73 95.7C48.78 95.34 48.82 94.98 48.85 94.62C48.89 94.26 48.92 93.9 48.94 93.54C48.95 93.17 48.96 92.81 48.97 92.45C48.97 92.09 48.97 91.73 48.95 91.36C49.03 85.76 43.08 81.69 42.77 81.48C42.45 81.26 36.51 78.52 36.55 84.2C36.54 84.58 36.53 84.97 36.54 85.35C36.54 85.74 36.55 86.13 36.57 86.51C36.59 86.9 36.61 87.28 36.65 87.67C36.68 88.05 36.73 88.43 36.78 88.81C36.83 89.2 36.03 87.31 35.23 88.24C34.43 89.16 36.2 93.61 36.78 93.93C37.23 94.19 37.6 96.63 37.87 97.31L37.87 102.11L32.57 102.86C28.35 101.36 23.15 100.25 22.54 104.06C21.92 107.88 19.89 123.12 19.89 123.12L17.73 130.24L15.1 148.23L12.92 155.73C12.92 155.73 13.58 161.61 14.29 162.66C15 163.71 16.86 165.76 16.86 165.76L17.36 164.55L16.25 161.72L16.34 158.81L17.14 157.47C17.14 157.47 17.64 159.25 17.89 160.03C17.94 160.23 18 160.42 18.07 160.61C18.14 160.8 18.22 160.99 18.31 161.17C18.41 161.35 18.52 161.52 18.64 161.68C18.76 161.85 18.89 162.01 19.03 162.15C19.51 162.43 19.99 161.36 19.46 159.57C19.35 158.94 19.25 158.31 19.15 157.68C19.06 157.05 18.98 156.41 18.91 155.78C18.84 155.15 18.78 154.51 18.73 153.88C18.68 153.24 18.64 152.6 18.61 151.97C18.87 151.37 19.14 150.78 19.42 150.19C19.7 149.61 19.99 149.02 20.29 148.45C20.59 147.87 20.9 147.29 21.21 146.72C21.53 146.16 21.85 145.59 22.18 145.03C22.75 144.01 23.28 142.96 23.75 141.88C24.22 140.81 24.64 139.71 25 138.6C25.36 137.48 25.67 136.35 25.93 135.21C26.18 134.06 26.38 132.91 26.52 131.74C26.78 127.3 28.09 125.56 28.49 125.8C28.58 126.02 28.66 126.24 28.74 126.45C28.81 126.67 28.89 126.89 28.95 127.11C29.02 127.33 29.08 127.56 29.14 127.78C29.19 128.01 29.24 128.23 29.29 128.46C29.55 129.22 28.85 154.69 28.31 155.58C27.77 156.46 26.06 168.4 26.29 173.82C26.52 179.23 28.37 190.45 28.54 192.09C28.71 193.73 28.88 203.2 28.88 203.2L28.25 218.03C28.25 218.03 30.27 236.27 29.9 239.47C29.77 239.67 29.64 239.85 29.49 240.02C29.33 240.19 29.17 240.35 28.99 240.5C28.82 240.65 28.63 240.78 28.43 240.9C28.24 241.01 28.03 241.11 27.82 241.2C27.58 241.31 27.33 241.4 27.08 241.47C26.83 241.55 26.57 241.6 26.31 241.63C26.05 241.66 25.78 241.67 25.52 241.66C25.26 241.64 25 241.61 24.74 241.56C23.74 241.28 21.5 241.73 21.91 242.91C22.12 243.51 33.15 249.83 33.67 250.13C34.91 250.84 36.43 251.23 35.92 248.04C35.17 243.54 34.78 240.65 35.17 237.98L37.8 223.36L37.32 210.44L39.04 199.67L42.52 172.83L45.82 203.56C45.82 203.56 47.49 215.55 47.49 216.3C47.49 217.05 46.03 223.76 46.92 228.6C47.8 233.45 49.12 243.14 49.48 246.23C49.83 249.31 49.41 251.71 48.65 255.37C48.54 255.83 48.51 256.3 48.56 256.76C48.61 257.23 48.74 257.68 48.95 258.11C49.15 258.53 49.42 258.91 49.76 259.24C50.09 259.57 50.48 259.84 50.9 260.04C51.42 260.34 53.59 261.23 54.36 261.68C54.45 261.73 54.54 261.78 54.63 261.84C54.72 261.9 54.8 261.96 54.89 262.02C54.97 262.08 55.05 262.15 55.13 262.22C55.21 262.28 55.29 262.35 55.36 262.43C56.22 263.24 61.42 266.33 61.76 266.53C62.11 266.72 62.46 266.8 62.66 266.44C63.07 265.74 60.86 262.7 59.85 261.83C59.56 261.54 59.27 261.24 58.99 260.93C58.72 260.62 58.45 260.31 58.19 259.98C57.94 259.65 57.69 259.32 57.46 258.98C57.22 258.63 57 258.29 56.78 257.93C56.58 257.61 56.37 257.28 56.18 256.95C55.99 256.61 55.81 256.27 55.64 255.93C55.47 255.59 55.3 255.24 55.15 254.88C55 254.53 54.86 254.17 54.72 253.81C54.36 250.19 55.72 239.01 56.48 234.32C57.23 229.64 56.36 221.58 55.94 218.82C55.52 216.07 56.13 209.54 56.34 208.14C56.55 206.73 58.49 197.74 58.71 192.56C58.94 187.38 56.81 172.06 56.81 172.06L55.21 154.43L55.96 143.94L56.8 142.21C57.08 142.86 57.33 143.52 57.55 144.19C57.77 144.85 57.96 145.53 58.12 146.22C58.28 146.9 58.41 147.6 58.51 148.3C58.6 148.99 58.67 149.69 58.7 150.4C58.95 155.3 62.95 168.65 62.95 168.65C62.95 168.65 66.77 179.05 66.48 179.68C66.18 180.3 66.12 185.08 65.58 186.28C65.48 186.53 65.4 186.8 65.37 187.07C65.33 187.34 65.34 187.62 65.38 187.89C65.42 188.16 65.49 188.43 65.61 188.68C65.72 188.93 65.86 189.17 66.04 189.38C66.48 189.62 66.91 189.03 67.14 188.54C67.36 188.06 68.03 186.83 68.03 186.83L68.68 189.08L68.75 192.08C68.7 192.23 68.64 192.38 68.56 192.52C68.49 192.66 68.41 192.8 68.31 192.93C68.22 193.06 68.11 193.18 68 193.3C67.89 193.41 67.77 193.52 67.64 193.61C66.73 194.31 66.94 195.11 67.2 195.4C67.5 195.42 67.79 195.44 68.08 195.44C68.38 195.44 68.67 195.44 68.96 195.43C69.25 195.42 69.55 195.4 69.84 195.37C70.13 195.34 70.42 195.31 70.71 195.27L72.12 189.95C72.12 189.95 70.43 182.93 69.93 179.98Z" />
					<g id="Group_1083" style="opacity: 0.231">
						<path id="Path_1043" class="shp32" d="M62.84 118.19C67.95 121.14 72.08 128.29 72.07 134.17C72.06 140.05 67.89 142.42 62.78 139.46C57.67 136.51 53.54 129.36 53.55 123.48C53.57 117.6 57.73 115.23 62.84 118.19Z" />
					</g>
					<g id="Group_1084" style="opacity: 0.231">
						<path id="Path_1044" class="shp32" d="M26.95 172.89C32.05 175.84 36.19 182.99 36.18 188.87C36.16 194.75 32 197.12 26.88 194.16C21.76 191.21 17.64 184.06 17.66 178.18C17.67 172.3 21.86 169.94 26.95 172.89Z" />
					</g>
					<g id="Group_1085" style="opacity: 0.231">
						<path id="Path_1045" class="shp32" d="M58.94 213.07C64.05 216.02 68.18 223.18 68.16 229.06C68.15 234.93 63.99 237.3 58.88 234.35C53.76 231.4 49.64 224.24 49.65 218.36C49.66 212.48 53.82 210.07 58.94 213.07Z" />
					</g>
					<path id="Path_1046" fill-rule="evenodd" class="shp21" d="M114.55 184.07C115.04 184.75 115.57 185.42 116.12 186.06C116.67 186.7 117.25 187.32 117.85 187.92C118.45 188.52 119.07 189.09 119.72 189.63C120.37 190.18 121.04 190.69 121.73 191.18C124.46 186.86 126.74 181.05 126.62 175.18C126.62 174.72 126.61 174.26 126.59 173.79C126.57 173.33 126.53 172.87 126.48 172.41C126.44 171.94 126.38 171.49 126.3 171.03C126.23 170.57 126.15 170.11 126.05 169.66C121.84 181.9 106.56 172.21 114.55 184.07Z" />
					<path id="Path_1047" fill-rule="evenodd" class="shp21" d="M124.58 165.27C123.43 162.88 119.9 159.51 119.68 159.27C119.11 158.64 121.05 148.03 121.05 148.03L115.69 144.89C115.69 144.89 112.5 153.43 111.59 154C111.41 153.9 111.25 153.78 111.1 153.64C110.95 153.5 110.81 153.35 110.7 153.18C110.58 153.02 110.48 152.84 110.4 152.65C110.32 152.46 110.26 152.27 110.23 152.07C110.11 150.42 111.02 142.22 111.02 142.22L106.01 139.59C106.01 139.59 105.33 145.63 104.88 148.25C104.65 149.28 103.05 150.98 102.82 150.64C101.46 149.39 100.44 144.21 100.09 142.33C99.52 139.54 98.84 136.33 98.84 136.33L93.71 135.82C93.88 136.31 94.03 136.8 94.17 137.3C94.32 137.79 94.45 138.29 94.58 138.79C94.7 139.29 94.82 139.79 94.93 140.3C95.03 140.8 95.13 141.31 95.21 141.82C95.56 143.59 94.88 144.96 93.51 145.18C93.28 145.23 93.04 145.28 92.81 145.34C92.57 145.4 92.34 145.47 92.11 145.55C91.89 145.62 91.66 145.7 91.44 145.8C91.21 145.89 90.99 145.99 90.78 146.09C104.33 156.63 116.05 191.46 124.61 165.29L124.58 165.27Z" />
					<path id="Path_1048" fill-rule="evenodd" class="shp21" d="M120.7 192.71C120.33 193.27 119.92 193.81 119.49 194.32C119.05 194.83 118.58 195.31 118.08 195.76C117.58 196.21 117.05 196.63 116.5 197.02C115.95 197.4 115.38 197.75 114.78 198.07C114.3 198.22 113.81 198.32 113.31 198.38C112.81 198.43 112.31 198.43 111.81 198.37C111.31 198.32 110.82 198.22 110.34 198.06C109.86 197.9 109.4 197.7 108.97 197.44C104.76 195.34 99.75 189.75 93.82 180.53C92.77 178.97 91.81 177.34 90.95 175.67C90.09 173.99 89.33 172.27 88.68 170.5C88.03 168.73 87.48 166.93 87.05 165.1C86.61 163.27 86.29 161.41 86.08 159.54C85.51 153.9 86.42 149.24 88.33 147.36L88.33 147.36L88.9 147.07C109.29 162.16 104.16 171.81 112.82 184.77C113.36 185.53 113.93 186.27 114.53 186.99C115.13 187.7 115.76 188.39 116.42 189.05C117.08 189.72 117.76 190.35 118.47 190.96C119.18 191.56 119.92 192.14 120.67 192.69L120.7 192.71Z" />
					<path id="Path_1049" fill-rule="evenodd" class="shp21" d="M181.87 248.81L85.91 200.72L85.91 194.97L181.87 243.05L181.87 248.81Z" />
					<path id="Path_1050" fill-rule="evenodd" class="shp21" d="M181.87 258.45L85.91 210.36L85.91 204.6L181.87 252.7L181.87 258.45Z" />
					<path id="Path_1051" fill-rule="evenodd" class="shp21" d="M181.87 267.88L85.91 219.79L85.91 214.03L181.87 262.12L181.87 267.88Z" />
					<path id="Path_1052" fill-rule="evenodd" class="shp21" d="M181.87 277.52L85.91 229.43L85.91 223.67L181.87 271.77L181.87 277.52Z" />
					<path id="Path_1053" fill-rule="evenodd" class="shp21" d="M181.87 287.63L85.91 239.55L85.91 233.79L181.87 281.87L181.87 287.63Z" />
					<path id="Path_1054" fill-rule="evenodd" class="shp21" d="M181.87 297.28L85.91 249.19L85.91 243.43L181.87 291.52L181.87 297.28Z" />
					<path id="Path_1055" fill-rule="evenodd" class="shp21" d="M181.87 306.7L85.91 258.61L85.91 252.86L181.87 300.94L181.87 306.7Z" />
					<path id="Path_1056" fill-rule="evenodd" class="shp21" d="M181.87 316.35L85.91 268.26L85.91 262.5L181.87 310.59L181.87 316.35Z" />
					<path id="Path_1057" fill-rule="evenodd" class="shp21" d="M182.87 180.69L135.65 157.08L135.65 151.32L182.87 174.94L182.87 180.69Z" />
					<path id="Path_1058" fill-rule="evenodd" class="shp21" d="M182.87 189.86L135.65 166.25L135.65 160.49L182.87 184.1L182.87 189.86Z" />
					<path id="Path_1059" fill-rule="evenodd" class="shp21" d="M182.87 198.65L135.65 175.04L135.65 169.28L182.87 192.9L182.87 198.65Z" />
					<path id="Path_1060" fill-rule="evenodd" class="shp21" d="M182.87 208.55L135.65 184.94L135.65 179.18L182.87 202.79L182.87 208.55Z" />
					<path id="Path_1061" fill-rule="evenodd" class="shp21" d="M182.87 217.71L135.65 194.11L135.65 188.35L182.87 211.95L182.87 217.71Z" />
					<path id="Path_1062" fill-rule="evenodd" class="shp21" d="M182.87 226.51L135.65 202.9L135.65 197.14L182.87 220.75L182.87 226.51Z" />
					<path id="Path_1063" class="shp18" d="M329.33 507.96L329.16 393.18L489.03 475.12L489.03 588.43L329.33 507.96Z" />
					<path id="Path_1064" class="shp33" d="M480.57 485.24L480.57 575.01L336.54 500.91L336.54 411.15L480.57 485.24Z" />
					<path id="Path_1065" class="shp18" d="M414.11 464.71L414.11 467.9L382 451.47L382 448.28L414.11 464.71Z" />
					<path id="Path_1066" class="shp18" d="M414.11 474.46L382 458.02L382 454.83L414.11 471.26L414.11 474.46Z" />
					<path id="Path_1067" class="shp18" d="M461.9 502.95L429.79 486.52L429.79 483.32L461.9 499.76L461.9 502.95Z" />
					<path id="Path_1068" class="shp18" d="M461.9 497.37L429.79 480.95L429.79 477.75L461.9 494.18L461.9 497.37Z" />
					<path id="Path_1069" class="shp18" d="M391.45 466.22L414.11 477.82L414.11 481.01L391.45 469.41L391.45 466.22Z" />
					<path id="Path_1070" class="shp18" d="M414.11 494.12L382 477.69L382 474.49L414.11 490.92L414.11 494.12Z" />
					<path id="Path_1071" class="shp18" d="M386.48 470.24L414.11 484.37L414.11 487.56L386.48 473.43L386.48 470.24Z" />
					<path id="Path_1072" class="shp18" d="M414.11 500.67L394.96 490.87L394.96 487.68L414.11 497.48L414.11 500.67Z" />
					<path id="Path_1073" class="shp18" d="M373.19 443.68L373.19 446.87L341.08 430.45L341.08 427.25L373.19 443.68Z" />
					<path id="Path_1074" class="shp18" d="M373.19 453.43L341.08 437L341.08 433.81L373.19 450.23L373.19 453.43Z" />
					<path id="Path_1075" class="shp18" d="M350.53 445.19L373.19 456.78L373.19 459.98L350.53 448.38L350.53 445.19Z" />
					<path id="Path_1076" class="shp18" d="M373.19 473.09L341.08 456.66L341.08 453.47L373.19 469.89L373.19 473.09Z" />
					<path id="Path_1077" class="shp18" d="M345.56 449.2L373.19 463.34L373.19 466.53L345.56 452.4L345.56 449.2Z" />
					<path id="Path_1078" class="shp18" d="M373.19 479.64L354.04 469.84L354.04 466.64L373.19 476.44L373.19 479.64Z" />
					<path id="Path_1079" class="shp18" d="M344.89 488.31L354.77 492.36L357.52 488.22C357.57 488.15 357.63 488.08 357.7 488.02C357.78 487.97 357.85 487.92 357.94 487.88C358.02 487.84 358.11 487.82 358.2 487.8C358.29 487.79 358.38 487.79 358.47 487.8C358.56 487.8 358.65 487.82 358.73 487.85C358.82 487.89 358.9 487.93 358.97 487.98C359.05 488.03 359.11 488.1 359.17 488.17C359.22 488.24 359.27 488.31 359.3 488.4L364.66 503.15L369.16 487.79C369.19 487.69 369.24 487.6 369.31 487.52C369.37 487.43 369.45 487.36 369.54 487.31C369.63 487.25 369.72 487.2 369.83 487.18C369.93 487.15 370.03 487.14 370.14 487.15C370.24 487.14 370.35 487.16 370.45 487.19C370.55 487.22 370.64 487.27 370.73 487.34C370.81 487.4 370.88 487.47 370.94 487.56C371 487.65 371.05 487.74 371.08 487.85L374.08 501.5L396.29 512.68L395.32 514.18L372.7 502.81C372.64 502.78 372.59 502.74 372.53 502.7C372.48 502.66 372.44 502.62 372.4 502.57C372.36 502.51 372.32 502.46 372.29 502.4C372.26 502.34 372.24 502.28 372.23 502.22L369.98 491.92L365.7 506.47C365.62 506.66 365.5 506.82 365.33 506.94C365.17 507.05 364.97 507.11 364.77 507.12C364.57 507.12 364.37 507.07 364.2 506.96C364.03 506.86 363.89 506.7 363.81 506.52L358.09 490.78L356.01 493.92C355.94 494.01 355.85 494.09 355.75 494.16C355.66 494.23 355.55 494.28 355.44 494.31C355.32 494.34 355.21 494.35 355.09 494.35C354.97 494.34 354.86 494.31 354.75 494.27L344.06 489.88L344.89 488.31Z" />
					<path id="Path_1080" fill-rule="evenodd" class="shp18" d="M428.24 506.01C422.64 510.57 421.49 522.42 421.23 527.08C421.23 527.44 421.26 527.8 421.32 528.15C421.38 528.51 421.47 528.86 421.59 529.2C421.71 529.53 421.86 529.86 422.04 530.18C422.21 530.49 422.42 530.79 422.64 531.07C422.84 531.33 423.05 531.58 423.29 531.82C423.52 532.05 423.76 532.27 424.03 532.47C424.29 532.66 424.56 532.84 424.85 533C425.14 533.16 425.44 533.3 425.74 533.42L436.49 537.28C442.79 539.45 441.45 527.79 441.63 523.53C442.69 522.99 443.94 522.03 445.71 521.22C447.58 524.02 449.08 526.37 450.21 528.1C450.39 532.45 448.98 542.57 455.19 546.64L465.92 553.52C466.14 553.69 466.37 553.84 466.62 553.96C466.87 554.08 467.13 554.17 467.39 554.23C467.66 554.3 467.93 554.33 468.21 554.34C468.48 554.35 468.76 554.33 469.02 554.27C469.27 554.18 469.5 554.04 469.7 553.86C469.9 553.69 470.07 553.48 470.2 553.24C470.33 553.01 470.41 552.76 470.45 552.49C470.5 552.23 470.49 551.96 470.44 551.7C470.27 546.82 469.11 533.83 463.52 523.67C450.92 500.78 449.78 513.06 450.12 525.84C448.7 523.44 447.37 521.18 447.28 521.04L447.37 511.69L444.37 510.19L444.19 519.5C444.37 519.41 443.04 520.25 441.54 521.19C441.89 508.86 440.65 495.82 428.22 506.02L428.24 506.01Z" />
					<path id="Path_1081" fill-rule="evenodd" class="shp9" d="M509.06 390.98L406.27 339.57L406.27 236.78L509.06 288.19L509.06 390.98Z" />
					<path id="Path_1082" class="shp21" d="M436.85 304.86L436.85 304.86L441.8 288.97L446.14 291.14L454.73 327.44L457.86 317.06L460.04 316.46L468.29 320.56L473.24 304.67L477.6 306.85L482.54 327.69L496.78 334.82C497.05 334.08 497.28 333.33 497.48 332.57C497.67 331.81 497.84 331.04 497.97 330.26C498.1 329.49 498.2 328.71 498.26 327.93C498.32 327.14 498.35 326.36 498.34 325.57C498.34 312.41 488.2 296.7 475.76 290.47C469.24 287.21 463.2 287.21 459.08 289.72C454.98 283.07 449.07 277.09 442.54 273.83C430.09 267.61 419.83 273.08 419.83 286.27C419.86 287.19 419.91 288.11 419.99 289.03C420.08 289.94 420.19 290.86 420.33 291.77C420.47 292.67 420.64 293.58 420.84 294.48C421.04 295.37 421.26 296.27 421.52 297.15L436.85 304.86Z" />
					<path id="Path_1083" class="shp21" d="M480.69 331.35L494.93 338.47C485.39 354.22 459.05 354.36 459.05 354.36C459.05 354.36 432.81 327.96 423.3 302.64L438.52 310.24L440.69 309.64L443.95 299.32L452.54 335.63L456.89 337.8L461.83 321.91L469.93 325.96L472.11 325.35L475.25 314.95L478.51 328.54L480.69 331.35Z" />
				</g>
			</g>
      <g id="Rectangle_1167" data-name="Rectangle 1167"  fill="#fff" stroke="#707070" stroke-width="1" opacity="0.501">
        <rect width="1440" height="810" stroke="none"/>
        <rect x="-1" y="-1" width="1439" height="809" fill="none"/>
      </g>
		</g>
	</g>
</svg>
